<?xml version="1.0" encoding="utf-8"?>
<!-- Generator: Adobe Illustrator 22.0.1, SVG Export Plug-In . SVG Version: 6.00 Build 0)  -->
<svg version="1.1" id="Layer_1" xmlns="http://www.w3.org/2000/svg" xmlns:xlink="http://www.w3.org/1999/xlink" x="0px" y="0px"
	 viewBox="0 0 578.6 293.8" style="enable-background:new 0 0 578.6 293.8;" xml:space="preserve">
<g>
	<g>
		<path d="M15,15.9c40.5,55.9,95,111,168.6,112.8c16.6,0.4,33.4-2.1,48.9-8.2c7.5-2.9,14.9-6.6,21.4-11.4c5.2-3.8,8-9,5.6-15.4
			c-2.7-7.1-10.1-10.3-16.9-12.4c-9.2-2.9-18.7-4.7-28.2-5.8c-19.1-2.1-38.4-0.6-57.2,3.1c-19.4,3.8-38.4,10.1-56.6,17.8
			c-15.6,6.6-31.9,14.8-42.9,28.1c-4.5,5.5-8,12.5-6.5,19.7c1.4,6.7,6.6,12.1,12.6,15.2c7.6,3.9,16.4,4.8,24.8,5.4
			c10.5,0.8,21,0.5,31.4-0.8c4.5-0.6,9.1-1.3,13.6-2.3c3.3-0.7,7.2-1.4,9.5-4.1c3.3-3.8,0.2-7.8-4.2-8c-3.6-0.2-7.4,1-10.9,1.7
			c-4.5,0.9-9.1,2-13.5,3.3c-8.3,2.3-16.4,5.3-24.2,8.7c-16.1,7-31.3,16.3-44.9,27.4c-12.8,10.5-27.7,23.8-31,40.9
			c-2.8,14.8,5.6,28.3,18,36c15.6,9.7,35.7,9.6,53.4,9.4c39.6-0.4,79.2-7.8,116.2-21.7c8.9-3.3,17.7-7.1,26.4-11.2
			c1.7-0.8,0.2-3.4-1.5-2.6c-31.2,14.7-64.6,24.6-98.8,29.3c-17.3,2.4-34.8,3.4-52.3,3c-16.4-0.3-34.5-1.7-47.4-13
			c-30.7-26.7,7.5-60.5,29.9-76.3c12.8-9,26.8-16.5,41.5-22c7.1-2.7,14.4-5,21.9-6.8c3.4-0.8,6.9-1.6,10.4-2.3
			c1.4-0.3,5.1-1.5,6.3-1c0.5,0.3,2,2.8,1.6,3.9c-0.3,0.7-2.8,1.3-3.3,1.4c-17.1,5.1-36.9,5.3-54.5,3.1c-8.3-1-17.4-2.9-23.3-9.3
			c-7.3-7.8-5.1-17.6,1.1-25.3c9.9-12.2,24.7-20,38.9-26.2c15.7-6.9,32-12.6,48.7-16.6c16.7-4.1,33.8-6.4,51.1-6.2
			c16.3,0.2,34.9,1.9,49.8,9c4.3,2.1,8.5,5.6,9.1,10.7c0.6,5.6-3.8,8.6-8,11.3c-6.4,4.1-13.2,7.5-20.4,10.1
			c-13.9,5.1-28.8,7.3-43.6,7.1c-64-0.9-114.9-44-152.8-91.8c-5.1-6.4-10-12.9-14.8-19.6C16.5,12.8,13.9,14.3,15,15.9L15,15.9z"/>
	</g>
</g>
<g>
	<g>
		<path d="M158.9,188c-5.7,9.4-11.3,18.9-17,28.3c-1,1.7,1.6,3.2,2.6,1.5c7.3-11.8,17.2-21.3,29.3-28c-0.7-0.7-1.4-1.4-2.1-2.1
			c-2.6,4.3-4.9,12.4,2.2,13.8c7.3,1.5,13.9-6,18.1-10.9c-0.8-0.6-1.6-1.2-2.4-1.8c-4.9,7-11.3,14.1-14.2,22.3
			c-1.5,4.4-2.1,11.2,4.6,9.6c7.3-1.8,14.4-9.1,18.8-14.8c5.9-7.7,11.6-18.2,22.8-17.5c0-1,0-2,0-3c-10.5-0.1-18.2,7.6-23.3,16
			c-3.6,5.9-5.3,16.7,3.8,18.5c7.8,1.5,16-5.7,19.8-11.7c3.3-5.1,7.7-16.7,1.9-21.5c-0.6,0.8-1.2,1.6-1.8,2.4
			c6,4.1,6.8,12.8,15.5,13.1c7.3,0.2,10.8-5.9,13.3-11.8c-1-0.3-1.9-0.5-2.9-0.8c-4.3,10.5-12.5,19.7-19,28.9
			c-1,1.4,1.2,3.1,2.4,1.8c4.5-5.3,9.1-10.6,13.6-15.9c3.7-4.3,7.3-10.2,12.1-13.3c2-1.3,4.2-1.5,6.6-1.5c2.6,0,4.1-0.4,4,2.7
			c-0.1,3.3-3.3,5.1-5.3,7.6c-2.9,3.5-5.9,7.7-7.4,12c-3,8.8,6.6,8.7,12.1,5.9c9.4-4.9,15.8-13.8,21.9-22.2c1.1-1.6-1.5-3.1-2.6-1.5
			c-3.3,4.6-6.7,9.2-10.7,13.3c-2.3,2.3-4.7,4.5-7.5,6.2c-1.1,0.7-2.2,1.4-3.4,1.9c-2.5,1.2-3.6,1.9-5.7-0.4c-2.2-2.4-1-3.2,0.3-5.7
			c0.6-1.2,1.3-2.3,2-3.4c1.6-2.5,3.5-4.9,5.7-7c2.2-2.3,6-4.9,5.1-8.6c-1.7-6.7-14.3-4-18-0.9c-4.6,3.7-8.2,9-11.9,13.5
			c-4.3,5.1-8.6,10.1-13,15.2c0.8,0.6,1.6,1.2,2.4,1.8c6.7-9.5,14.8-18.9,19.3-29.6c0.7-1.8-2.2-2.6-2.9-0.8
			c-1.1,2.7-2.3,5.7-4.6,7.6c-3.8,3.3-9.1,2.2-12.1-1.3c-2.7-3.2-4.1-6.9-7.7-9.3c-1.4-1-3.1,1.3-1.8,2.4c4.3,3.5,0.5,12.9-1.6,16.6
			c-2.8,4.8-7.9,10-13.5,11.2c-5.9,1.2-9.6-3.5-7.9-9.1c0.9-2.9,2.7-5.7,4.5-8.1c4.5-6.2,10.4-11.3,18.4-11.1c1.9,0,1.9-2.9,0-3
			c-14.6-1-20.3,14.1-28.8,22.9c-2.8,2.9-6.1,5.5-9.7,7.5c-2.2,1.2-5,3.9-5.7-0.9c-0.2-1.5,1.5-4.6,2-5.7c3.4-6.8,8.5-12.9,12.8-19
			c1-1.4-1.2-3.1-2.4-1.8c-2.5,2.9-5,5.8-8.2,7.9c-3.2,2-3.9,2.4-7.1,0.4c-2.5-0.5-3.3-1.8-2.2-3.9c0.5-1.3,1.2-2.5,1.9-3.7
			c0.8-1.3-0.8-2.8-2.1-2.1c-12.5,7-22.8,16.9-30.4,29.1c0.9,0.5,1.7,1,2.6,1.5c5.7-9.4,11.3-18.9,17-28.3
			C162.5,187.8,159.9,186.3,158.9,188L158.9,188z"/>
	</g>
</g>
<g>
	<g>
		<path d="M395.7,187.2c-5.1,6.2-9.9,12.9-13.7,20c-2.2,4.1-3,9.5,2.5,11.2c5.6,1.7,9.6-3,12.7-6.9c5.7-7.3,11.5-14.5,17.2-21.8
			c-0.8-0.6-1.6-1.2-2.4-1.8c-3.1,5.1-6.2,10.2-9.3,15.3c-1.8,3-4.1,6.3-3.7,10c0.9,7.3,8.9,5.9,13.7,3.5
			c7.3-3.7,12.1-10.9,16.6-17.4c6.6-9.5,13.1-19,19.7-28.5c1.8-2.6,12.1-15.8,3.5-17.4c-5.6-1.1-12.3,8.9-15,12.6
			c-5.2,7.2-8.9,15.4-11.8,23.7c-1.5,4.2-2.8,8.5-4,12.7c-1,3.6-3.1,8.1-2.5,12c1.3,8.7,13.3,1.3,17.1-1.4
			c8.8-6.2,14.4-15.6,19.8-24.8c1-1.7-1.5-3-2.6-1.5c-6.9,9.2-11,19.6-12.5,31c-0.1,1.1,1.1,1.6,1.9,1.4
			c15.2-2.7,25.3-15.5,32.6-28.1c1-1.7-1.6-3.2-2.6-1.5c-5.7,9.6-11.4,19.3-17,28.9c-1,1.7,1.6,3.1,2.6,1.5
			c6.8-10.9,14.8-22.8,24.7-31.2c3.2-2.7,8.6-1.8,7.7,3.6c-0.3,1.8-1.6,3.6-2.6,5.2c-1.6,2.4-3.4,4.5-4.9,6.9
			c-2.2,3.4-5.3,8.9-2.7,12.8c4.9,7.2,15.7-0.4,19.6-4.7c3.4-3.8,5.9-8.3,8.8-12.5c1.7-2.5,3.6-5,5.9-7c3.3-2.9,11.8-7.1,13.2,0.2
			c0.8-0.5,1.7-1,2.5-1.5c-14-13.4-29.9,9.4-29.6,22.6c0.2,7,10.2,4.4,13.9,2.1c8.3-5.3,13.4-15.6,18.7-23.5c1-1.4-1.2-3-2.4-1.8
			c-5.1,4.9-8.6,11-9.7,18c-0.7,4.1-1.2,8.2,3.4,9.4c6.1,1.5,12.3-2.8,16.8-6.4c5.7-4.6,10.5-9.9,13.3-16.7c0.7-1.8-2.2-2.6-2.9-0.8
			c-3.4,8.4-12.5,18-21.5,20.5c-1.4,0.4-2.7,0.6-4.1,0.5c-2-0.4-2.8-1.4-2.3-3.1c-0.5-2.1,0.7-5.2,1.3-7.2c1.5-4.7,4.3-8.8,7.8-12.2
			c-0.8-0.6-1.6-1.2-2.4-1.8c-3.7,5.5-7.1,11.2-11.3,16.4c-1.9,2.4-14.1,13.5-15.6,5.9c-0.4-1.9,1.2-5.6,1.8-7.4
			c1.1-3.6,2.5-7.1,4.9-10c4.2-5.1,12.4-7.5,17.6-2.5c1.1,1.1,2.8,0,2.5-1.5c-0.9-4.6-5.1-6.8-9.6-6.1c-5.4,0.8-9.7,5.1-12.9,9.2
			c-4.2,5.4-7.1,11.8-12.1,16.6c-2.4,2.3-6.4,5.5-10,5c-8.5-1.3,0.4-12.5,2.3-15.3c2.8-3.9,6.6-8.8,4.6-13.9
			c-1.6-4.2-5.8-5.3-9.6-3.3c-5.7,2.9-10.5,10.1-14.5,15c-4.9,6-9.4,12.4-13.5,19c0.9,0.5,1.7,1,2.6,1.5c5.7-9.6,11.4-19.3,17-28.9
			c-0.9-0.5-1.7-1-2.6-1.5c-7,12-16.4,24.1-30.9,26.7c0.6,0.5,1.3,1,1.9,1.4c1.4-10.8,5.6-20.8,12.1-29.5c-0.9-0.5-1.7-1-2.6-1.5
			c-4.5,7.7-9.1,15.7-16,21.6c-3.3,2.8-7,5.1-11.1,6.4c-3.4,1.1-4.7-0.2-3.9-3.9c0.4-2,1.1-4,1.6-6c4.2-14.9,9.2-30.6,20-42.2
			c1.4-1.5,2.8-2.9,4.4-4.2c0.6-0.5,1.3-1,1.9-1.5c1.6,2.4,1.6,4.5,0.1,6.3c-1.9,4.3-5.9,8.6-8.6,12.5c-5.1,7.4-10.2,14.8-15.3,22.2
			c-4.6,6.6-9.7,14.6-17.7,17.3c-1.2,0.4-2.3,0.6-3.6,0.8c-3.2-2.1-4-4.4-2.5-6.7c0.7-2.1,2.3-4.2,3.5-6.1c2.7-4.5,5.5-9.1,8.2-13.6
			c0.9-1.4-1.3-3.2-2.4-1.8c-6.4,8.2-12.5,17.2-19.6,24.8c-0.8,0.9-1.8,2-2.9,2.6c-1,0.3-2,0.6-3,0.8c-1.1-1.4-2.3-2.9-3.4-4.3
			c-0.3-1.8,3.1-6,4.1-7.5c3.2-5.1,6.7-10,10.4-14.6C399.1,187.8,396.9,185.7,395.7,187.2L395.7,187.2z"/>
	</g>
</g>
<g>
	<g>
		<path d="M204.1,161.8c-2-0.5-4.2-0.8-5.9,0.7c-1.4,1.3-1.5,3.4-0.1,4.7c1.2,1.1,3.4,1,4.3-0.4c0.9-1.4,0.3-3.3-1.3-3.8
			c-1.8-0.6-2.6,2.3-0.8,2.9c0.4,0.1-0.5-0.3-0.5-0.5c0,0.1,0.4-0.7,0.2-0.4c-0.2,0.1-0.1,0.1,0.1,0c0,0-0.1-0.1-0.1-0.1
			c0,0.1,0.1-0.1,0.1-0.1c0.9-0.8,2.1-0.5,3.1-0.2C205.2,165.2,206,162.3,204.1,161.8L204.1,161.8z"/>
	</g>
</g>
<g>
	<g>
		<path d="M465.8,160.9c-2.3,1.9-1.8,5.6,0.9,6.8c1.4,0.6,3.3,0.6,3.9-1c0.5-1.4,0.2-3.1-0.6-4.3c-0.5-0.7-1.3-1-2.1-0.5
			c-0.6,0.4-1,1.4-0.5,2.1c0.4,0.5,0.7,1.2,0.4,1.9c0.3-0.2,0.6-0.5,0.9-0.7c-1.4,0.3-1.6-1.4-0.7-2.1c0.6-0.5,0.5-1.6,0-2.1
			C467.3,160.2,466.4,160.4,465.8,160.9L465.8,160.9z"/>
	</g>
</g>
<g>
	<g>
		<path d="M301.3,157c-11-0.1-22-0.2-33-0.3c-5.1,0-11.6,0.8-16.2-1.7c-3.8-2-5.8-6.7-2.6-10.2c1.8-2,4.8-3.3,7.1-4.6
			c18.1-9.9,37.6-16.9,57.5-22.2c41.5-11,84.9-16.7,127.6-21c25.1-2.5,50.3-4.2,75.5-5.1c1.7-0.1,2-2.4,0.4-2.9
			c-17.6-6.6-36.5,9.4-50.2,18.5c-18.2,12-35.9,24.7-53.4,37.8c-16.8,12.6-33.3,25.6-49.9,38.5c-15.3,12-30.7,24-45.1,37.2
			c-15.8,14.5-30.3,30.6-41.3,49.2c-1,1.7,1.6,3.2,2.6,1.5c19.1-32.2,48.3-56.2,77.4-79.1c32.3-25.4,64.6-50.9,98.5-74.1
			c9.4-6.4,18.9-12.7,28.6-18.7c9.5-5.9,20.6-12.2,31.9-8c0.1-1,0.3-2,0.4-2.9c-49.9,1.7-99.7,6.6-149,14.9
			c-23.1,3.9-46.2,8.3-68.6,15.2c-10.3,3.2-20.4,7-30.2,11.4c-4.8,2.2-9.6,4.6-14.3,7.1c-3.3,1.8-7.7,3.8-9.5,7.4
			c-4.6,9,6.6,14.1,13.7,14.5c14,0.8,28.2,0.3,42.2,0.5C303.2,160,303.2,157,301.3,157L301.3,157z"/>
	</g>
</g>
</svg>
